<svg width="64" height="64" viewBox="0 0 64 64" fill="none" xmlns="http://www.w3.org/2000/svg">
  <rect width="64" height="64" rx="18" fill="#059669"/>
  <path d="M18 37H14C12.8954 37 12 36.1046 12 35V29C12 27.8954 12.8954 27 14 27H18V23C18 21.8954 18.8954 21 20 21H24C25.1046 21 26 21.8954 26 23V41C26 42.1046 25.1046 43 24 43H20C18.8954 43 18 42.1046 18 41V37Z" fill="white"/>
  <path d="M46 27H50C51.1046 27 52 27.8954 52 29V35C52 36.1046 51.1046 37 50 37H46V41C46 42.1046 45.1046 43 44 43H40C38.8954 43 38 42.1046 38 41V23C38 21.8954 38.8954 21 40 21H44C45.1046 21 46 21.8954 46 23V27Z" fill="white"/>
  <path d="M26 30H38V34H26V30Z" fill="white"/>
</svg>
